<?xml version="1.0" encoding="utf-8"?>
<!-- Generator: Adobe Illustrator 26.2.1, SVG Export Plug-In . SVG Version: 6.00 Build 0)  -->
<svg version="1.1" xmlns="http://www.w3.org/2000/svg" xmlns:xlink="http://www.w3.org/1999/xlink" x="0px" y="0px"
	 viewBox="0 0 400 400" style="enable-background:new 0 0 400 400;" xml:space="preserve">
<style type="text/css">
	.st0{stroke:#F2F2F2;stroke-width:0.5;stroke-miterlimit:10;}
	.st1{stroke:#E6E6E6;stroke-width:10;stroke-miterlimit:10;}
	.st2{fill:url(#SVGID_1_);stroke:#E6E6E6;stroke-width:2;stroke-miterlimit:10;}
	.st3{fill:#4D4D4D;}
	.st4{fill:#FBB03B;}
	.st5{fill:#E6E6E6;}
</style>
<g id="Layer_1">
	<path class="st0" d="M367.41,95.74h-51.59c-6.19,0-11.21-5.02-11.21-11.21v-9.32c0-6.19,5.02-11.21,11.21-11.21h51.59
		c6.19,0,11.21,5.02,11.21,11.21v9.32C378.62,90.72,373.6,95.74,367.41,95.74z"/>
	<path class="st0" d="M382.16,329H24.84c-3.23,0-5.84-2.62-5.84-5.84V89.94c0-3.23,2.62-5.84,5.84-5.84h357.32
		c3.23,0,5.84,2.62,5.84,5.84v233.22C388,326.38,385.38,329,382.16,329z"/>
	<ellipse class="st1" cx="196.66" cy="214.68" rx="88.01" ry="89.32"/>
	<linearGradient id="SVGID_1_" gradientUnits="userSpaceOnUse" x1="123.9031" y1="214.5677" x2="268.793" y2="214.5677">
		<stop  offset="0" style="stop-color:#CCE0F4"/>
		<stop  offset="0.0641" style="stop-color:#C3DCF2"/>
		<stop  offset="0.1706" style="stop-color:#A9D2EE"/>
		<stop  offset="0.3066" style="stop-color:#80C2E7"/>
		<stop  offset="0.4649" style="stop-color:#47ACDE"/>
		<stop  offset="0.5674" style="stop-color:#1E9CD7"/>
		<stop  offset="0.8652" style="stop-color:#0075BE"/>
		<stop  offset="0.9944" style="stop-color:#005B97"/>
	</linearGradient>
	<ellipse class="st2" cx="196.35" cy="214.57" rx="72.44" ry="73.52"/>
	<rect x="22.13" y="87.27" class="st3" width="363.79" height="22.22"/>
	<rect x="323.37" y="69.29" class="st4" width="36.48" height="14.81"/>
	<rect x="22.13" y="102.08" class="st5" width="363.79" height="7.41"/>
</g>
<g id="Layer_2">
</g>
</svg>
