<?xml version="1.0" encoding="utf-8"?>
<!-- Generator: Adobe Illustrator 26.2.1, SVG Export Plug-In . SVG Version: 6.00 Build 0)  -->
<svg version="1.1" xmlns="http://www.w3.org/2000/svg" xmlns:xlink="http://www.w3.org/1999/xlink" x="0px" y="0px"
	 viewBox="0 0 400 400" style="enable-background:new 0 0 400 400;" xml:space="preserve">
<style type="text/css">
	.st0{stroke:#F2F2F2;stroke-width:0.5;stroke-miterlimit:10;}
	.st1{fill:#1A1A1A;stroke:#F2F2F2;stroke-width:0.5;stroke-miterlimit:10;}
	.st2{fill:none;stroke:#E6E6E6;stroke-miterlimit:10;}
	.st3{fill:url(#SVGID_1_);}
	.st4{fill:#4D4D4D;}
	.st5{fill:#E6E6E6;}
	.st6{fill:none;}
	.st7{fill:none;stroke:#FFFFFF;stroke-miterlimit:10;}
	.st8{font-family:'MyriadPro-Regular';}
	.st9{font-size:178px;}
	.st10{letter-spacing:-9;}
	.st11{font-family:'CopperplateGothic-Light';}
	.st12{font-size:49px;}
	.st13{letter-spacing:1;}
	.st14{fill:#1A1A1A;}
</style>
<g id="Layer_1">
	<path class="st0" d="M56.29,73.07H38.53c-6.19,0-11.21-5.02-11.21-11.21v0c0-6.19,5.02-11.21,11.21-11.21h17.76
		c6.19,0,11.21,5.02,11.21,11.21v0C67.5,68.05,62.48,73.07,56.29,73.07z"/>
	<path class="st0" d="M362.41,75.74h-51.59c-6.19,0-11.21-5.02-11.21-11.21v-9.32c0-6.19,5.02-11.21,11.21-11.21h51.59
		c6.19,0,11.21,5.02,11.21,11.21v9.32C373.62,70.72,368.6,75.74,362.41,75.74z"/>
	<path class="st1" d="M378.16,309H20.84c-3.23,0-5.84-2.62-5.84-5.84V69.94c0-3.23,2.62-5.84,5.84-5.84h357.32
		c3.23,0,5.84,2.62,5.84,5.84v233.22C384,306.38,381.38,309,378.16,309z"/>
	<ellipse class="st2" cx="301.98" cy="205.75" rx="66.76" ry="67.75"/>
	<ellipse class="st2" cx="302.14" cy="205.5" rx="56.66" ry="57.5"/>
	<linearGradient id="SVGID_1_" gradientUnits="userSpaceOnUse" x1="318.3729" y1="54.6946" x2="354.8559" y2="54.6946">
		<stop  offset="0" style="stop-color:#FFEA55"/>
		<stop  offset="0.1514" style="stop-color:#FFE152"/>
		<stop  offset="0.4023" style="stop-color:#FFC749"/>
		<stop  offset="0.5674" style="stop-color:#FFB342"/>
		<stop  offset="0.8652" style="stop-color:#FFFD8A"/>
		<stop  offset="0.9944" style="stop-color:#005B97"/>
	</linearGradient>
	<rect x="318.37" y="47.29" class="st3" width="36.48" height="14.81"/>
	<rect x="17.13" y="67.27" class="st4" width="363.79" height="22.22"/>
	<rect x="17.13" y="82.08" class="st5" width="363.79" height="7.41"/>
	<rect x="23" y="139" class="st6" width="350.19" height="134.39"/>
	<text transform="matrix(1 0 0 1 23 265.3784)" class="st7 st8 st9 st10">AG</text>
	<rect x="13.41" y="316.43" class="st6" width="370.59" height="81.03"/>
	<text transform="matrix(1 0 0 1 13.4052 343.2286)" class="st11 st12 st13">Photography</text>
	<ellipse class="st2" cx="302.28" cy="205.55" rx="47.25" ry="47.95"/>
	<g>
		<g>
			<path class="st14" d="M296,162.78c-1.44-1.15-3.01-0.9-4.73-1.09c-1.09-0.12-2.15-0.36-3.24-0.39c-1.07-0.04-2.14,0-3.21-0.01
				c-2.21-0.02-4.32,0.08-6.49,0.53c-2.2,0.45-4.36,1.06-6.62,1.04c-1.93-0.02-1.93,2.98,0,3c4.02,0.03,7.8-1.58,11.83-1.57
				c1.95,0,3.98-0.12,5.91,0.15c0.83,0.12,1.66,0.27,2.5,0.31c0.48,0.02,1.52-0.16,1.92,0.16
				C295.37,166.09,297.51,163.98,296,162.78L296,162.78z"/>
		</g>
	</g>
	<g>
		<g>
			<path class="st14" d="M276.61,163.63c-2.22,0.28-3.24,1.71-4.2,3.55c-0.46,0.87-1.34,0.72-2.24,0.96
				c-0.88,0.23-1.64,0.65-2.32,1.26c-1.68,1.51-2.52,3.42-3.42,5.42c-0.81,1.79-2.75,2.88-3.92,4.42c-0.55,0.72-0.65,1.64-1.04,2.44
				c-0.49,1.01-1.16,1.9-1.62,2.93c-0.92,2.06-1.99,4.2-3.23,6.08c-1.13,1.71-2.11,3.12-2.21,5.23c-0.06,1.21,0.11,2.41,0.29,3.61
				c0.16,1.04,0.45,2.2,0.48,3.24c1,0,2,0,3,0c-0.08-2.39-0.1-4.62,0.58-6.93c0.25-0.84,0.57-3.19,1.59-3.38
				c-0.63-0.48-1.27-0.96-1.9-1.45c0.06,0.96-0.34,1.67-0.75,2.5c-0.42,0.87-0.77,1.76-1.01,2.7c-0.47,1.91-0.61,3.96-0.72,5.92
				c-0.13,2.16,0.36,3.91,0.99,5.94c0.31,1.01,0.49,2.01,0.6,3.06c0.05,0.42,0.08,0.85,0.16,1.27c0.04,0.2,0.32,1.1,0.32,1.1
				c0.62-0.35,1.23-0.7,1.85-1.05c-0.33-0.05-0.03,0.11-0.09-0.02c-0.08-0.2-0.23-0.38-0.33-0.58c-0.21-0.43-0.36-0.9-0.5-1.36
				c-0.38-1.24-0.5-2.45-0.56-3.75c-0.98,0.13-1.96,0.27-2.95,0.4c0.37,1.53,0.81,3.05,1.19,4.58c0.41,1.64,0.62,3.31,0.99,4.96
				c0.69,3.12,1.96,6.25,3.12,9.22c1.16,2.97,2.63,5.82,4.17,8.61c0.74,1.34,1.5,2.54,2.42,3.76c0.83,1.1,1.35,2.3,2.41,3.22
				c0.98,0.85,1.79,1.88,2.86,2.62c1.39,0.96,2.8,1.97,4.28,2.8c1.25,0.7,2.58,1.25,3.86,1.87c1.21,0.58,2.27,1.46,3.45,2.11
				c1.34,0.74,2.55,1.38,3.99,1.93c1.34,0.5,2.66,0.81,4.08,1c3.11,0.43,6.08,1.31,9.24,1.32c1.9,0,3.79-0.07,5.67,0.17
				c1.62,0.21,3.24,0.52,4.88,0.39c1.77-0.15,3.54-0.77,5.23-1.3c1.73-0.54,3.42-1.19,5.05-1.99c1.23-0.61,0.78-2.36-0.36-2.74
				c-1.13-0.38-2.53-0.02-3.68,0.09c-1.51,0.14-3,0.37-4.5,0.51c-0.69,0.06-1.38,0.04-2.07,0.08c-0.64,0.04-1.27,0.23-1.91,0.25
				c-1.04,0.04-1.88-0.15-2.72,0.63c-0.83,0.77-0.4,2.23,0.66,2.51c1.88,0.49,3.82-0.19,5.62-0.72c2.25-0.66,4.43-1.42,6.73-1.91
				c2.23-0.47,4.37-1.13,6.51-1.9c2.09-0.76,4.06-1.49,5.78-2.95c1.58-1.34,3.08-2.9,4.4-4.49c1.44-1.74,2.65-3.66,4.1-5.39
				c1.4-1.68,2.88-3.38,4.18-5.13c0.56-0.75,0.91-1.58,1.52-2.31c0.64-0.77,1.01-1.47,1.12-2.47c0.17-1.53-2.1-1.97-2.8-0.76
				c-1.3,2.26-2.79,4.41-3.89,6.78c-0.47,1.01-1.02,1.86-1.73,2.72c-0.65,0.8-1.48,1.55-1.86,2.51c-0.57,1.45,1.51,2.45,2.51,1.46
				c1.64-1.64,2.83-3.61,3.83-5.69c1.05-2.19,2.18-4.41,2.81-6.76c0.31-1.17,0.5-2.41,0.96-3.53c0.44-1.07,1.06-2.05,1.44-3.15
				c0.79-2.3,1.16-4.72,2.2-6.95c-0.86,0-1.73,0-2.59,0c0.98,2.19-0.27,4.95-0.9,7.08c-0.33,1.12-0.43,2.22-1.05,3.22
				c-0.33,0.53-0.7,1.09-0.97,1.66c-0.1,0.2-0.18,0.41-0.25,0.62c-0.11,0.32-0.36,0.69,0.03,0.4c0.73,0.56,1.47,1.13,2.2,1.69
				c0.34-1.32,0.98-2.54,1.38-3.84c0.41-1.35,0.92-2.67,1.32-4.03c0.8-2.75,0.95-5.71,1.27-8.55c0.33-2.93,0.03-5.76-0.07-8.69
				c-0.05-1.47-0.17-2.94-0.35-4.4c-0.07-0.55-0.14-1.09-0.17-1.64c-0.01-0.15-0.02-0.31-0.03-0.46c-0.01-0.41,0.15-0.53-0.05-0.25
				c-0.86,0-1.73,0-2.59,0c0.65,1.09,0.89,2.34,0.97,3.6c0.09,1.43,0.14,2.85,0.24,4.27c0.11,1.44-0.04,2.87-0.22,4.3
				c-0.2,1.57-0.18,3.23-0.53,4.78c0.91-0.12,1.83-0.24,2.74-0.36c-0.25-0.58,0.26-2.01,0.36-2.6c0.21-1.3,0.36-2.61,0.52-3.92
				c0.31-2.62-0.07-4.89-0.84-7.4c-0.72-2.36-1.56-4.65-2.14-7.05c-0.28-1.17-0.5-2.42-0.88-3.55c-0.34-1.03-0.85-1.99-1.13-3.05
				c-0.84,0.49-1.67,0.97-2.51,1.46c1.46,1.28,2.47,2.93,3.19,4.73c0.33,0.83,0.66,1.72,0.82,2.6c0.21,1.18,0.07,2.42,0.17,3.62
				c0.98-0.13,1.96-0.27,2.95-0.4c-0.27-1.19-0.73-2.32-0.99-3.51c-0.25-1.12-0.53-2.23-0.85-3.33c-0.32-1.06-0.61-2.1-1-3.13
				c-0.27-0.72-0.4-1.52-0.89-2.15c-0.69-0.9-2.48-1.06-2.74,0.36c-0.34,1.8-0.15,3.53,0.03,5.33c0.08,0.77,0.11,1.54,0.13,2.32
				c0.01,0.36,0.19,1.38-0.09,1.68c-1.31,1.41,0.8,3.54,2.12,2.12c1.14-1.23,1-2.84,0.95-4.4c-0.06-2.06-0.64-4.2-0.26-6.25
				c-0.91,0.12-1.83,0.24-2.74,0.36c0.44,0.58,0.63,1.47,0.89,2.15c0.34,0.91,0.54,1.89,0.82,2.83c0.28,0.97,0.51,1.93,0.73,2.92
				c0.26,1.19,0.72,2.32,0.99,3.51c0.37,1.62,3.08,1.31,2.95-0.4c-0.1-1.32,0-2.65-0.2-3.97c-0.18-1.17-0.59-2.31-1.03-3.41
				c-0.87-2.14-2.06-4.16-3.82-5.69c-1.1-0.96-2.91-0.05-2.51,1.46c0.29,1.07,0.75,2.05,1.13,3.08c0.41,1.1,0.61,2.38,0.88,3.53
				c0.61,2.55,1.53,4.98,2.27,7.49c0.35,1.18,0.73,2.4,0.78,3.64c0.05,1.3-0.19,2.61-0.34,3.9c-0.26,2.13-1.18,4.59-0.3,6.65
				c0.51,1.2,2.48,0.82,2.74-0.36c0.37-1.68,0.36-3.43,0.58-5.13c0.23-1.74,0.4-3.45,0.24-5.2c-0.28-3.03,0.04-6.19-1.58-8.92
				c-0.61-1.04-1.95-0.89-2.59,0c-0.48,0.67-0.37,1.62-0.32,2.39c0.1,1.34,0.31,2.67,0.4,4.01c0.22,2.99,0.6,6.15,0.32,9.14
				c-0.26,2.88-0.44,5.95-1.19,8.75c-0.39,1.43-0.94,2.8-1.37,4.22c-0.42,1.38-1.09,2.68-1.45,4.06c-0.3,1.14,1.11,2.53,2.2,1.69
				c1.13-0.87,1.36-2.27,2.08-3.46c0.39-0.64,0.8-1.22,1-1.95c0.23-0.81,0.34-1.65,0.59-2.46c0.92-3.06,1.92-6.13,0.54-9.21
				c-0.45-1-2.14-0.97-2.59,0c-0.97,2.07-1.61,4.29-2.17,6.51c-0.29,1.15-0.79,2.14-1.3,3.2c-0.52,1.09-0.83,2.2-1.12,3.37
				c-0.57,2.32-1.47,4.4-2.48,6.57c-0.98,2.11-2.05,4.17-3.71,5.82c0.84,0.49,1.67,0.97,2.51,1.46c0.02-0.06,0.59-0.57,0.69-0.69
				c0.39-0.48,0.8-0.96,1.18-1.45c0.68-0.86,1.13-1.78,1.59-2.77c1.05-2.23,2.48-4.25,3.71-6.38c-0.93-0.25-1.86-0.5-2.8-0.76
				c-0.05,0.47-1.07,1.29-1.33,1.71c-0.55,0.88-1.03,1.61-1.71,2.43c-1.24,1.48-2.41,3.03-3.62,4.54c-1.22,1.52-2.26,3.19-3.52,4.68
				c-1.21,1.43-2.57,2.81-3.97,4.06c-1.49,1.33-3.33,1.94-5.19,2.59c-1.85,0.66-3.71,1.24-5.64,1.65c-1.97,0.42-3.86,0.95-5.78,1.57
				c-1.5,0.48-3.83,1.57-5.42,1.15c0.22,0.84,0.44,1.67,0.66,2.51c-0.54,0.17-0.59,0.24-0.15,0.2c0.18,0.01,0.36,0.02,0.54,0.04
				c0.5,0.01,0.97-0.09,1.46-0.15c1.13-0.15,2.28-0.11,3.42-0.26c1.19-0.15,2.38-0.3,3.57-0.41c0.86-0.08,2.29-0.49,3.12-0.22
				c-0.12-0.91-0.24-1.83-0.36-2.74c-1.33,0.66-2.7,1.17-4.11,1.62c-1.48,0.47-3.1,1.08-4.65,1.26c-1.35,0.16-2.75-0.1-4.08-0.28
				c-1.52-0.21-2.99-0.28-4.52-0.28c-1.4,0-2.84,0.1-4.23-0.08c-1.5-0.19-3.03-0.52-4.5-0.84c-2.88-0.62-5.64-0.89-8.22-2.45
				c-2.16-1.3-4.23-2.58-6.51-3.66c-2.58-1.21-5.15-2.84-7.14-4.88c-0.88-0.91-1.7-1.53-2.36-2.63c-0.75-1.24-1.71-2.32-2.42-3.6
				c-1.46-2.59-2.89-5.22-4.05-7.95c-0.69-1.61-1.23-3.28-1.8-4.93c-0.55-1.6-1.2-3.16-1.6-4.81c-0.39-1.63-0.58-3.3-0.97-4.94
				c-0.4-1.69-0.9-3.35-1.3-5.04c-0.39-1.63-3.02-1.3-2.95,0.4c0.09,1.84,0.29,3.59,0.92,5.34c0.46,1.28,1.21,3.04,2.75,3.26
				c0.72,0.11,1.72-0.17,1.85-1.05c0.14-1-0.15-1.73-0.32-2.7c-0.18-1.01-0.2-2.04-0.42-3.04c-0.22-1.01-0.62-1.95-0.93-2.94
				c-0.33-1.07-0.36-2.15-0.31-3.26c0.1-1.96,0.23-4.06,0.79-5.94c0.56-1.87,1.83-3.36,1.7-5.4c-0.07-1.03-0.9-1.63-1.9-1.45
				c-2.16,0.4-2.96,2.96-3.49,4.79c-0.82,2.82-0.97,5.48-0.88,8.41c0.06,1.92,3.06,1.94,3,0c-0.06-2-0.72-3.96-0.77-5.98
				c-0.06-2.07,0.84-3.08,1.91-4.76c1.11-1.74,2.09-3.67,2.96-5.54c0.42-0.89,0.88-1.68,1.37-2.53c0.51-0.86,0.73-1.83,1.16-2.69
				c0.73-1.45,2.47-2.47,3.47-3.76c0.59-0.77,0.9-1.59,1.25-2.48c0.36-0.92,0.91-1.75,1.53-2.52c0.59-0.74,1.15-1.31,2.1-1.52
				c0.89-0.2,1.76-0.29,2.56-0.77c0.72-0.43,1.12-1.07,1.43-1.83c0.25-0.61,0.68-1.66,1.46-1.76
				C278.5,166.39,278.53,163.39,276.61,163.63L276.61,163.63z"/>
		</g>
	</g>
	<g>
		<g>
			<path class="st14" d="M300.1,155.11c-0.83,0.01-1.44,0.27-2.21,0.52c-0.84,0.28-1.77,0.31-2.64,0.46
				c-0.81,0.13-1.5,0.53-2.3,0.69c-0.98,0.2-1.99,0.31-2.97,0.53c-0.83,0.18-1.57,0.59-2.42,0.73c-0.93,0.16-1.86,0.23-2.76,0.57
				c-0.83,0.31-1.72,0.67-2.44,1.18c-0.67,0.47-1.12,1.09-1.65,1.71c-1.25,1.46,0.86,3.59,2.12,2.12c0.39-0.46,0.75-1.03,1.25-1.38
				c0.61-0.42,1.4-0.74,2.11-0.93c0.86-0.24,1.77-0.26,2.64-0.46c0.73-0.17,1.39-0.54,2.13-0.67c0.88-0.15,1.75-0.3,2.63-0.47
				c0.77-0.15,1.43-0.53,2.19-0.68c0.77-0.15,1.56-0.2,2.34-0.35c0.68-0.13,1.3-0.55,1.99-0.56
				C302.03,158.08,302.03,155.08,300.1,155.11L300.1,155.11z"/>
		</g>
	</g>
	<g>
		<g>
			<path class="st14" d="M297.51,158.66c0.17,0.34,0.34,0.69,0.52,1.03c0.09,0.17,0.22,0.32,0.39,0.42
				c0.14,0.13,0.31,0.22,0.51,0.27c0.2,0.06,0.4,0.07,0.6,0.03c0.2-0.01,0.39-0.07,0.56-0.18c0.1-0.08,0.2-0.16,0.3-0.23
				c0.19-0.19,0.31-0.41,0.39-0.66c0.02-0.13,0.04-0.27,0.05-0.4c0-0.27-0.07-0.52-0.2-0.76c-0.17-0.34-0.34-0.69-0.52-1.03
				c-0.09-0.17-0.22-0.32-0.39-0.42c-0.14-0.13-0.31-0.22-0.51-0.27c-0.2-0.06-0.4-0.07-0.6-0.03c-0.2,0.01-0.39,0.07-0.56,0.18
				c-0.1,0.08-0.2,0.16-0.3,0.23c-0.19,0.19-0.31,0.41-0.39,0.66c-0.02,0.13-0.04,0.27-0.05,0.4
				C297.31,158.17,297.38,158.43,297.51,158.66L297.51,158.66z"/>
		</g>
	</g>
	<g>
		<g>
			<path class="st14" d="M347.79,185.77c0.1-1.45-0.42-3.1-1.12-4.35c-0.36-0.63-0.79-1.26-1.22-1.85
				c-0.11-0.15-0.22-0.29-0.33-0.43c0.09,0.11,0.08,0.1-0.02-0.03c-0.1-0.16-0.2-0.32-0.3-0.48c-0.24-0.37-0.49-0.75-0.83-1.03
				c-0.63-0.51-1.49-0.62-2.12,0c-0.57,0.57-0.62,1.33-0.47,2.08c0.04,0.2,0.1,0.38,0.16,0.57c0.03,0.08,0.05,0.16,0.07,0.24
				c0,0.02,0.08,0.49,0.05,0.22c0.05,0.55,0.02,1.1,0.05,1.65c0.02,0.31,0.04,0.62,0.04,0.92c0,0.15-0.01,0.3-0.01,0.45
				c-0.01,0.33,0.04-0.17-0.03,0.16c0.35-0.35,0.7-0.7,1.05-1.05c0.21-0.06,0.36-0.01,0.58,0.05c0.4,0.11,0.36,0.12,0.24,0.05
				c0.01,0,0.33,0.24,0.14,0.09c-0.03-0.02-0.16-0.13,0.01,0.02c0.16,0.14-0.02-0.05-0.07-0.12c-0.06-0.1-0.12-0.21-0.18-0.31
				c-0.19-0.36-0.33-0.75-0.53-1.1c-0.29-0.51-0.7-0.95-0.99-1.47c-0.36-0.64-0.6-1.29-1.05-1.88c-0.22-0.3-0.45-0.58-0.69-0.87
				c-0.07-0.09-0.14-0.18-0.22-0.26c-0.11-0.13,0.03,0.04,0.04,0.06c-0.05-0.07-0.1-0.14-0.14-0.21c-0.04-0.07-0.08-0.14-0.13-0.21
				c-0.1-0.16,0-0.03-0.02-0.02c0.04-0.02,0.02,0.16,0.01-0.02c0.02,0.2-0.26,1.06-0.42,1.18c-0.02,0.02-0.26,0.19-0.29,0.16
				c0,0.01,0.13-0.04,0.14-0.04c0.07-0.01,0.14-0.02,0.2-0.04c0.19-0.06-0.28,0.03-0.09,0.01c0.13-0.01,0.88-0.07,0.89-0.11
				c0,0.02,0.19-0.07-0.01,0c-0.13,0.05-0.02,0.01,0.04,0.01c-0.3,0-0.45-0.14-0.67-0.31c-0.12-0.09-0.08-0.09-0.03-0.01
				c-0.17-0.3-0.08-0.2-0.05-0.09c0.03,0.1,0.06,0.2,0.09,0.3c0.1,0.34,0.23,0.66,0.36,0.99c0.12,0.3,0.24,0.58,0.32,0.89
				c0.08,0.32-0.03-0.25,0.01,0.03c0.01,0.13,0.03,0.26,0.05,0.38c0.09,0.7,0.16,1.58,0.74,2.08c0.87,0.73,2.15,0.47,2.51-0.66
				c0.24-0.77,0.06-1.53-0.27-2.23c-0.12-0.26-0.27-0.5-0.41-0.76c-0.04-0.07-0.06-0.15-0.1-0.21c-0.05-0.08,0.14,0.34,0.01,0.03
				c-0.46-1.09-1.07-2.32-2.44-2.32c-0.69,0-1.24,0.47-1.45,1.1c-0.29,0.86-0.31,1.76-0.3,2.65c0.02,0.91-0.04,1.2-0.2,2.09
				c-0.14,0.77,0.21,1.65,1.05,1.85c0.73,0.17,1.7-0.22,1.85-1.05c0.15-0.84,0.33-1.69,0.32-2.55c-0.01-0.88-0.06-1.48,0.18-2.2
				c-0.48,0.37-0.96,0.73-1.45,1.1c-0.17-0.01-0.32-0.05-0.47-0.12c-0.19-0.15-0.23-0.17-0.11-0.06c-0.13-0.18-0.15-0.2-0.06-0.06
				c0.04,0.06,0.07,0.12,0.1,0.19c0.07,0.13,0.12,0.26,0.18,0.39c-0.2-0.44,0.06,0.14,0.08,0.18c0.13,0.3,0.28,0.58,0.43,0.86
				c0.03,0.05,0.32,0.51,0.16,0.3c0.04,0.18,0.05,0.18,0.03,0.01c0.04-0.17,0.04-0.17-0.01,0c0.84-0.22,1.67-0.44,2.51-0.66
				c-0.14-0.12,0.14,0.18,0.13,0.17c0.2,0.34,0.09,0.25,0.07,0.14c-0.02-0.13-0.05-0.26-0.08-0.39c-0.01-0.08-0.03-0.29,0.01,0.07
				c-0.01-0.07-0.02-0.15-0.03-0.22c-0.03-0.25-0.06-0.51-0.1-0.76c-0.11-0.72-0.49-1.37-0.71-2.06c-0.27-0.88-0.65-1.63-1.57-1.97
				c-0.5-0.18-0.93-0.09-1.43-0.04c0.57-0.06,0.13-0.02,0-0.01c-0.25,0.03-0.51,0.06-0.76,0.1c-0.98,0.16-1.88,0.79-1.91,1.87
				c-0.02,0.91,0.58,1.68,1.12,2.35c0.09,0.11,0.18,0.22,0.28,0.33c0.05,0.06,0.11,0.13,0.16,0.19c-0.11-0.13,0.06,0.07,0.06,0.08
				c0.27,0.37,0.49,0.76,0.68,1.18c0.33,0.75,0.85,1.32,1.25,2.02c0.28,0.48,0.45,1.01,0.75,1.48c0.54,0.86,1.39,1.55,2.47,1.26
				c0.49-0.13,0.93-0.55,1.05-1.05c0.26-1.12,0.08-2.24,0.08-3.37c0-0.56-0.04-1.15-0.2-1.69c-0.05-0.18-0.12-0.35-0.17-0.53
				c-0.01-0.04-0.08-0.25-0.06-0.27c0.01,0.07,0.02,0.13,0.03,0.2c0.01-0.37-0.1-0.14-0.32,0.7c-0.71,0-1.41,0-2.12,0
				c0.06,0.05,0.36,0.41,0.21,0.18c0.08,0.12,0.16,0.24,0.23,0.36c0.1,0.16,0.19,0.31,0.3,0.46c0.07,0.09,0.43,0.58,0.27,0.35
				c0.4,0.56,0.81,1.15,1.16,1.75c0.06,0.1,0.12,0.21,0.17,0.32c0.03,0.05,0.23,0.54,0.11,0.24c0.11,0.3,0.22,0.61,0.3,0.92
				c0.04,0.13,0.07,0.27,0.1,0.4c0.01,0.07,0.1,0.63,0.06,0.25c0.03,0.27,0.04,0.54,0.02,0.81c-0.05,0.78,0.73,1.53,1.5,1.5
				C347.15,187.24,347.73,186.61,347.79,185.77L347.79,185.77z"/>
		</g>
	</g>
	<g>
		<g>
			<path class="st14" d="M256.27,217.26c0.04,2.4,0.75,4.48,2.01,6.5c0.56,0.9,0.86,1.8,1.21,2.79c0.18,0.51,0.41,0.92,0.69,1.38
				c0.14,0.23,0.26,0.79,0.4,0.94c0.14,0.15,1.5-0.24,1.48-0.41c-0.01-0.04-0.23-0.27-0.25-0.31c-0.24-0.32-0.44-0.67-0.64-1.01
				c-0.51-0.85-1.05-1.67-1.54-2.53c-1.29-2.28-2.28-4.68-2.77-7.27c-0.96,0.27-1.93,0.53-2.89,0.8c0.76,2.41,2.18,4.53,2.97,6.92
				c0.33,1-0.02,3.04,1.05,3.98c0.89,0.78,2.67,0.33,2.56-1.06c-0.34-4.4-1.82-8.51-3.07-12.71c-0.27-0.91-1.36-1.42-2.2-0.9
				c-1.24,0.77-1.16,2.46-1.09,3.75c0.09,1.68,0.36,3.34,0.65,4.99c0.34,1.96,0.69,3.92,1.07,5.87c0.22,1.12,0.27,2.75,1.34,3.43
				c1.01,0.64,2.19-0.21,2.26-1.3c0.13-2.3-0.21-4.56-0.48-6.84c-0.12-0.98-0.2-1.97-0.3-2.95c-0.12-1.11-0.42-2.21-0.45-3.33
				c-0.93,0.25-1.86,0.5-2.8,0.76c0.4,0.68,0.8,1.33,1.29,1.95c0.65,0.84,1.85,0.38,2.36-0.3c0.78-1.05,0.49-2.4,0.46-3.61
				c-0.02-0.6,0.1-1.17,0.16-1.76c0.12-1.09-0.01-2.17,0.07-3.26c0.26-3.45,1.02-7,1.99-10.32c0.99-3.41,2.25-6.74,3.26-10.14
				c1.01-3.39,1.58-7.01,3.23-10.15c0.75-1.42,1.43-3.02,2.49-4.23c1.13-1.29,2.59-2.45,3.89-3.57c0.96-0.83,2.34-1.6,2.06-3.08
				c-0.29-1.48-2.02-1.93-3.32-1.79c-1.33,0.14-2.75,0.73-3.99,1.21c-1.36,0.52-2.8,1.29-4.05,2.03c-2.71,1.61-2.67,5.54-3.08,8.29
				c-0.27,1.81-0.32,3.62-0.53,5.44c-0.14,1.29-0.93,2.6,0.07,3.75c1.83,2.1,5.49-0.06,7.16-1.32c2.27-1.7,3.88-4.03,4.9-6.66
				c0.55-1.41,0.97-2.92,1.27-4.41c0.27-1.4,0.56-3,0.19-4.41c-0.97-3.66-4.85-1.97-7.24-1.17c-1.16,0.39-2.4,0.81-3.07,1.92
				c-0.76,1.25-0.94,3-1.14,4.41c-0.4,2.83,0.26,6.18,2.58,8.09c2.13,1.75,5.78,1.2,7.31-1.1c0.89-1.33,0.84-3.05,0.99-4.59
				c0.19-1.87,0.16-3.63-0.61-5.38c-1.41-3.2-4.46-4.23-7.76-3.68c-3.45,0.58-5.72,3.18-6.68,6.39c-0.77,2.58-2.24,6.99-0.4,9.48
				c1.14,1.53,3.74,0.04,2.59-1.51c-1.02-1.38-0.14-4.27,0.27-5.72c0.62-2.21,1.22-4.27,3.48-5.31c1.55-0.72,4.14-0.86,5.25,0.66
				c1.44,1.96,1.01,4.67,0.69,6.92c-0.31,2.11-2.73,2.49-3.86,0.79c-1.39-2.08-1-4.46-0.48-6.75c0.25-1.08,0.44-1.3,1.5-1.66
				c1.02-0.35,2.05-0.82,3.1-1.05c0.51-0.11,0.45-0.18,0.62,0.21c0.15,0.34,0.02,1-0.02,1.36c-0.13,1.28-0.47,2.51-0.82,3.74
				c-0.56,1.99-1.37,3.9-2.75,5.47c-0.68,0.77-1.45,1.46-2.32,2.01c-0.35,0.22-0.71,0.43-1.08,0.61c-0.27,0.13-1.42,0.31-1.55,0.49
				c0.06,0.14,0.12,0.28,0.17,0.42c0.11,0.51,0.19,0.56,0.25,0.15c0.08-0.11,0.15-0.46,0.18-0.57c0.13-0.51,0.17-1.05,0.22-1.58
				c0.13-1.39,0.15-2.78,0.35-4.16c0.17-1.19,0.36-2.37,0.54-3.56c0.15-0.98,0.22-2.61,1.02-3.3c0.65-0.56,1.71-0.86,2.46-1.28
				c1.04-0.59,2.15-0.93,3.27-1.32c0.41-0.14,1-0.19,1.37-0.39c0.1,0,0.2,0,0.3,0c0.11-1.13-0.04-1.49-0.44-1.08
				c-0.22,0.09-0.43,0.34-0.61,0.49c-0.95,0.76-1.8,1.63-2.72,2.43c-1.93,1.67-3.06,3.52-4.26,5.74c-0.6,1.12-1.2,2.24-1.65,3.43
				c-0.46,1.21-0.66,2.5-0.98,3.75c-0.77,2.94-1.61,5.89-2.57,8.77c-0.92,2.78-1.94,5.5-2.62,8.35c-0.66,2.72-1.19,5.64-1.4,8.43
				c-0.06,0.79,0.02,1.57,0,2.35c-0.02,0.73-0.21,1.45-0.24,2.18c-0.03,0.73,0.41,1.98-0.04,2.59c0.79-0.1,1.57-0.2,2.36-0.3
				c-0.32-0.41-0.55-0.9-0.82-1.34c-0.74-1.26-2.83-0.75-2.8,0.76c0.03,1.13,0.31,2.21,0.45,3.33c0.11,0.98,0.19,1.97,0.3,2.95
				c0.27,2.28,0.61,4.54,0.48,6.84c0.75-0.43,1.5-0.86,2.26-1.3c0.98,0.62,0.5,0.88,0.43,0.28c-0.03-0.24-0.12-0.49-0.17-0.73
				c-0.09-0.45-0.17-0.91-0.26-1.36c-0.31-1.6-0.6-3.2-0.88-4.81c-0.26-1.47-0.53-2.93-0.66-4.42c-0.04-0.44-0.06-0.89-0.07-1.33
				c0-0.17,0.1-0.64,0.02-0.78c-0.14-0.24,0.45-0.24-0.39,0.28c-0.73-0.3-1.47-0.6-2.2-0.9c1.17,3.91,2.65,7.81,2.97,11.91
				c0.85-0.35,1.71-0.71,2.56-1.06c0.36,0.31,0.13,0.12,0.09-0.31c-0.03-0.26-0.03-0.51-0.05-0.77c-0.07-0.87-0.31-1.64-0.63-2.44
				c-0.82-2.04-1.99-3.96-2.66-6.06c-0.58-1.86-3.25-1.09-2.89,0.8c0.62,3.26,2.02,6.31,3.75,9.13c0.88,1.43,2.24,4.63,4.38,4.09
				c1.19-0.3,1.6-1.6,1.49-2.69c-0.13-1.21-0.84-2-1.24-3.09c-0.49-1.32-0.94-2.49-1.69-3.69c-0.89-1.44-1.34-2.93-1.37-4.63
				C259.24,215.33,256.24,215.32,256.27,217.26L256.27,217.26z"/>
		</g>
	</g>
	<g>
		<g>
			<path class="st14" d="M-80.29,139.02c1.93,0,1.93-3,0-3C-82.22,136.02-82.22,139.02-80.29,139.02L-80.29,139.02z"/>
		</g>
	</g>
</g>
<g id="Layer_2">
</g>
</svg>
